<svg width="24" height="24" viewBox="0 0 24 24" fill="none" xmlns="http://www.w3.org/2000/svg">
<path d="M14.7501 18.25C14.6515 18.2505 14.5539 18.2313 14.4629 18.1935C14.3719 18.1557 14.2893 18.1001 14.2201 18.03L8.72007 12.53C8.57962 12.3894 8.50073 12.1988 8.50073 12C8.50073 11.8013 8.57962 11.6107 8.72007 11.47L14.2201 6.00003C14.361 5.90864 14.5286 5.86722 14.6959 5.88241C14.8632 5.89759 15.0206 5.96851 15.1428 6.08379C15.2649 6.19907 15.3449 6.35203 15.3698 6.51817C15.3947 6.68431 15.3631 6.85399 15.2801 7.00003L10.2801 12L15.2801 17C15.4205 17.1407 15.4994 17.3313 15.4994 17.53C15.4994 17.7288 15.4205 17.9194 15.2801 18.06C15.1353 18.1907 14.9449 18.259 14.7501 18.25Z" fill="white"/>
</svg>
