<svg width="16" height="21" viewBox="0 0 16 21" fill="none" xmlns="http://www.w3.org/2000/svg">
<path d="M15.1012 19.5668L15.1012 1.56681C15.1006 1.38457 15.0503 1.20593 14.9558 1.05013C14.8613 0.894332 14.726 0.767267 14.5646 0.682613C14.4032 0.597959 14.2218 0.558923 14.0399 0.569706C13.858 0.580489 13.6824 0.640683 13.5322 0.743809L0.53218 9.74381C-0.00682032 10.1168 -0.00682032 11.0148 0.53218 11.3888L13.5322 20.3888C13.6821 20.493 13.8577 20.5541 14.04 20.5654C14.2222 20.5768 14.4041 20.538 14.5658 20.4533C14.7275 20.3686 14.8629 20.2411 14.9573 20.0848C15.0517 19.9286 15.1015 19.7494 15.1012 19.5668Z" fill="white"/>
</svg>
