<svg width="16" height="21" viewBox="0 0 16 21" fill="none" xmlns="http://www.w3.org/2000/svg">
<path d="M0.128313 1.56893L0.128313 19.5689C0.128884 19.7512 0.179148 19.9298 0.273691 20.0856C0.368235 20.2414 0.503478 20.3685 0.664865 20.4531C0.826253 20.5378 1.00767 20.5768 1.1896 20.566C1.37152 20.5553 1.54706 20.4951 1.69731 20.3919L14.6973 11.3919C15.2363 11.0189 15.2363 10.1209 14.6973 9.74693L1.69731 0.746933C1.54737 0.642758 1.37174 0.581667 1.18952 0.570298C1.00729 0.558929 0.825435 0.597717 0.663706 0.682447C0.501977 0.767177 0.366559 0.894609 0.272169 1.0509C0.177779 1.20719 0.128025 1.38635 0.128313 1.56893Z" fill="white"/>
</svg>
