<svg width="24" height="24" viewBox="0 0 24 24" fill="none" xmlns="http://www.w3.org/2000/svg">
<path d="M9.24993 5.74997C9.34847 5.74951 9.44611 5.76873 9.53712 5.8065C9.62813 5.84428 9.71068 5.89986 9.77993 5.96997L15.2799 11.47C15.4204 11.6106 15.4993 11.8012 15.4993 12C15.4993 12.1987 15.4204 12.3893 15.2799 12.53L9.77993 18C9.63897 18.0914 9.47141 18.1328 9.30411 18.1176C9.1368 18.1024 8.97944 18.0315 8.85725 17.9162C8.73505 17.8009 8.6551 17.648 8.6302 17.4818C8.6053 17.3157 8.6369 17.146 8.71993 17L13.7199 12L8.71993 6.99997C8.57948 6.85935 8.50059 6.66872 8.50059 6.46997C8.50059 6.27122 8.57948 6.0806 8.71993 5.93997C8.86466 5.80928 9.05513 5.741 9.24993 5.74997Z" fill="white"/>
</svg>
